<mxfile host="app.diagrams.net" modified="2023-04-06T07:38:34.057Z" agent="Mozilla/5.0 (Macintosh; Intel Mac OS X 10_15_7) AppleWebKit/537.36 (KHTML, like Gecko) Chrome/111.0.0.0 Safari/537.36" version="21.1.4" etag="MP3_xJos6KW-RLunuY91" type="github">
  <diagram name="페이지-1" id="ALJCMcIkOjAsizVdFBRu">
    <mxGraphModel>
      <root>
        <mxCell id="0" />
        <mxCell id="1" parent="0" />
      </root>
    </mxGraphModel>
  </diagram>
</mxfile>
